<svg width="1222" height="242" viewBox="0 0 1222 242" fill="none" xmlns="http://www.w3.org/2000/svg">
<path d="M347.435 150.2V29.5002H292.636V150.2C292.636 161.727 289.749 171.046 283.742 177.913L283.743 177.914C277.853 184.677 269.121 187.901 257.935 187.901C246.75 187.901 238.017 184.677 232.127 177.914L232.115 177.9L232.102 177.886C226.497 171.203 223.835 161.881 223.835 150.2V29.5002H169.335V150.2C169.335 169.536 173.082 185.774 180.471 199.005L181.192 200.241C188.729 212.9 198.803 222.509 211.429 229.112C224.717 235.755 239.805 239.101 256.735 239.101V241.101L255.128 241.09C239.108 240.891 224.671 237.703 211.815 231.528L210.535 230.901C197.135 223.901 186.535 213.6 178.735 200C171.135 186.4 167.335 169.8 167.335 150.2V27.5002H225.835V150.2C225.835 161.6 228.436 170.401 233.636 176.601C238.867 182.607 246.632 185.704 256.93 185.892L257.935 185.901C268.735 185.901 276.835 182.801 282.235 176.601C287.66 170.401 290.457 161.948 290.627 151.243L290.636 150.2V27.5002H349.435V150.2L349.424 152.011C349.175 170.635 345.079 186.632 337.136 200L336.357 201.266C328.232 214.241 317.291 224.119 303.535 230.901L302.218 231.528C288.558 237.909 273.398 241.101 256.735 241.101V239.101C273.664 239.101 288.961 235.756 302.661 229.102C316.508 222.274 327.415 212.243 335.416 198.979C343.397 185.547 347.435 169.316 347.435 150.2ZM778.685 150.2V29.5002H723.886V150.2C723.886 161.727 720.999 171.046 714.992 177.913L714.993 177.914C709.103 184.677 700.371 187.901 689.185 187.901C678 187.901 669.267 184.677 663.377 177.914L663.365 177.9L663.352 177.886C657.747 171.203 655.085 161.881 655.085 150.2V29.5002H600.585V150.2C600.585 169.536 604.332 185.774 611.721 199.005L612.442 200.241C619.979 212.9 630.053 222.509 642.68 229.112C655.967 235.755 671.055 239.101 687.985 239.101V241.101L686.378 241.09C670.358 240.891 655.921 237.703 643.065 231.528L641.785 230.901C628.385 223.901 617.785 213.6 609.985 200C602.385 186.4 598.585 169.8 598.585 150.2V27.5002H657.085V150.2C657.085 161.6 659.686 170.401 664.886 176.601C670.117 182.607 677.882 185.704 688.18 185.892L689.185 185.901C699.985 185.901 708.085 182.801 713.485 176.601C718.91 170.401 721.707 161.948 721.877 151.243L721.886 150.2V27.5002H780.685V150.2L780.674 152.011C780.425 170.635 776.329 186.632 768.386 200L767.607 201.266C759.482 214.241 748.541 224.119 734.785 230.901L733.468 231.528C719.808 237.909 704.648 241.101 687.985 241.101V239.101C704.914 239.101 720.211 235.756 733.911 229.102C747.758 222.274 758.665 212.243 766.666 198.979C774.647 185.547 778.685 169.316 778.685 150.2ZM1219.1 132.5C1219.1 112.021 1214.38 93.776 1204.97 77.7111L1204.97 77.7014C1195.55 61.4119 1182.71 48.7715 1166.43 39.7492L1166.42 39.7443C1150.34 30.7228 1132.48 26.2004 1112.8 26.2004C1093.32 26.2004 1075.46 30.7209 1059.17 39.7492C1042.89 48.7725 1029.95 61.415 1020.32 77.7102L1020.33 77.7111C1010.92 93.776 1006.2 112.021 1006.2 132.5C1006.2 152.976 1010.92 171.322 1020.33 187.59C1029.94 203.68 1042.88 216.326 1059.17 225.551C1075.46 234.579 1093.32 239.101 1112.8 239.101V241.101L1110.95 241.087C1091.86 240.809 1074.28 236.213 1058.2 227.3C1042.12 218.194 1029.23 205.803 1019.53 190.128L1018.6 188.601C1009 172.001 1004.2 153.3 1004.2 132.5C1004.2 111.7 1009 93.1003 1018.6 76.7004C1028.4 60.1005 1041.6 47.2002 1058.2 38.0002C1074.8 28.8002 1093 24.2004 1112.8 24.2004L1114.67 24.2141C1133.93 24.4925 1151.51 29.0877 1167.4 38.0002C1184 47.2002 1197.1 60.1004 1206.7 76.7004C1216.3 93.1003 1221.1 111.7 1221.1 132.5L1221.08 134.445C1220.79 154.467 1216 172.52 1206.7 188.601L1205.79 190.128C1196.28 205.803 1183.48 218.194 1167.4 227.3C1150.8 236.5 1132.6 241.101 1112.8 241.101V239.101C1132.28 239.101 1150.14 234.579 1166.43 225.551C1182.71 216.327 1195.55 203.684 1204.97 187.599C1214.38 171.329 1219.1 152.979 1219.1 132.5ZM56.8709 72.3H141.471V29.5002H2.07109V237H56.8709V154.2H119.271V113.5H56.8709V72.3ZM574.109 3.5002V27.5002L496.409 130.101L578.01 215V239H506.909L440.609 146.3V239H381.809V27.5002H440.609V118.7L532.501 3.5002H574.109ZM982.659 95.3C982.659 82.8267 979.74 71.6822 973.935 61.8147L973.931 61.8068L973.927 61.8C968.144 51.7762 959.556 43.9375 948.077 38.2951L948.065 38.2893L948.053 38.2834C936.602 32.461 922.531 29.5002 905.76 29.5002H815.059V237H869.859V159H879.354L921.354 237H982.392L935.165 155.317L937.58 154.586C952.444 150.088 963.541 142.61 971.038 132.23L971.042 132.224C978.778 121.586 982.659 109.304 982.659 95.3ZM438.609 124.415V29.5002H383.809V237H438.609V140.066L507.937 237H576.01V215.805L493.784 130.255L572.109 26.8293V5.5002H533.464L438.609 124.415ZM1161.4 132.5C1161.4 115.963 1157.14 102.913 1148.61 93.3527L1148.2 92.9006C1139.87 83.4068 1128.53 78.5117 1114.2 78.215L1112.8 78.2004C1097.6 78.2004 1085.7 83.1006 1077.1 92.9006L1076.7 93.3527C1068.37 102.913 1064.2 115.963 1064.2 132.5C1064.2 149.1 1068.5 162.301 1077.1 172.101C1085.43 181.4 1096.86 186.196 1111.38 186.487L1112.8 186.5C1127.8 186.5 1139.6 181.6 1148.2 171.8C1157 162 1161.4 148.9 1161.4 132.5ZM924.96 98.6008C924.96 91.8008 922.859 86.5004 918.659 82.7004C914.784 78.8256 909.126 76.8274 901.685 76.7063L900.96 76.7004V74.7004C909.067 74.7005 915.546 76.7787 920.044 81.257C924.717 85.5086 926.96 91.3811 926.96 98.6008C926.96 106.173 924.845 112.267 920.337 116.55C915.827 120.834 909.243 122.8 900.96 122.8H869.859V74.7004H900.96V76.7004H871.859V120.8H900.96C908.71 120.8 914.583 119.018 918.579 115.451L918.96 115.101C922.835 111.42 924.833 106.143 924.954 99.2707L924.96 98.6008ZM1163.4 132.5C1163.4 149.258 1158.9 162.869 1149.7 173.118L1149.7 173.119C1140.66 183.419 1128.28 188.5 1112.8 188.5C1097.14 188.5 1084.66 183.535 1075.61 173.435L1075.6 173.419C1066.6 163.163 1062.2 149.449 1062.2 132.5C1062.2 115.361 1066.59 101.632 1075.61 91.5656C1084.65 81.2699 1097.14 76.2004 1112.8 76.2004C1128.28 76.2005 1140.66 81.2814 1149.7 91.5813C1158.91 101.644 1163.4 115.368 1163.4 132.5ZM984.659 95.3C984.659 109.7 980.659 122.401 972.659 133.401C964.859 144.2 953.359 151.9 938.159 156.5L985.859 239H920.159L878.159 161H871.859V239H813.059V27.5002H905.76L907.346 27.509C923.657 27.6906 937.529 30.6877 948.96 36.5002C960.759 42.3001 969.659 50.4003 975.659 60.8C981.659 70.9999 984.659 82.5002 984.659 95.3ZM58.8709 111.5H121.271V156.2H58.8709V239H0.0710926V27.5002H143.471V74.3H58.8709V111.5Z" fill="white"/>
<path d="M347.435 150.2V29.5002H292.636V150.2C292.636 161.727 289.749 171.046 283.742 177.913L283.743 177.914C277.853 184.677 269.121 187.901 257.935 187.901C246.75 187.901 238.017 184.677 232.127 177.914L232.115 177.9L232.102 177.886C226.497 171.203 223.835 161.881 223.835 150.2V29.5002H169.335V150.2C169.335 169.536 173.082 185.774 180.471 199.005L181.192 200.241C188.729 212.9 198.803 222.509 211.429 229.112C224.717 235.755 239.805 239.101 256.735 239.101V241.101L255.128 241.09C239.108 240.891 224.671 237.703 211.815 231.528L210.535 230.901C197.135 223.901 186.535 213.6 178.735 200C171.135 186.4 167.335 169.8 167.335 150.2V27.5002H225.835V150.2C225.835 161.6 228.436 170.401 233.636 176.601C238.867 182.607 246.632 185.704 256.93 185.892L257.935 185.901C268.735 185.901 276.835 182.801 282.235 176.601C287.66 170.401 290.457 161.948 290.627 151.243L290.636 150.2V27.5002H349.435V150.2L349.424 152.011C349.175 170.635 345.079 186.632 337.136 200L336.357 201.266C328.232 214.241 317.291 224.119 303.535 230.901L302.218 231.528C288.558 237.909 273.398 241.101 256.735 241.101V239.101C273.664 239.101 288.961 235.756 302.661 229.102C316.508 222.274 327.415 212.243 335.416 198.979C343.397 185.547 347.435 169.316 347.435 150.2ZM778.685 150.2V29.5002H723.886V150.2C723.886 161.727 720.999 171.046 714.992 177.913L714.993 177.914C709.103 184.677 700.371 187.901 689.185 187.901C678 187.901 669.267 184.677 663.377 177.914L663.365 177.9L663.352 177.886C657.747 171.203 655.085 161.881 655.085 150.2V29.5002H600.585V150.2C600.585 169.536 604.332 185.774 611.721 199.005L612.442 200.241C619.979 212.9 630.053 222.509 642.68 229.112C655.967 235.755 671.055 239.101 687.985 239.101V241.101L686.378 241.09C670.358 240.891 655.921 237.703 643.065 231.528L641.785 230.901C628.385 223.901 617.785 213.6 609.985 200C602.385 186.4 598.585 169.8 598.585 150.2V27.5002H657.085V150.2C657.085 161.6 659.686 170.401 664.886 176.601C670.117 182.607 677.882 185.704 688.18 185.892L689.185 185.901C699.985 185.901 708.085 182.801 713.485 176.601C718.91 170.401 721.707 161.948 721.877 151.243L721.886 150.2V27.5002H780.685V150.2L780.674 152.011C780.425 170.635 776.329 186.632 768.386 200L767.607 201.266C759.482 214.241 748.541 224.119 734.785 230.901L733.468 231.528C719.808 237.909 704.648 241.101 687.985 241.101V239.101C704.914 239.101 720.211 235.756 733.911 229.102C747.758 222.274 758.665 212.243 766.666 198.979C774.647 185.547 778.685 169.316 778.685 150.2ZM1219.1 132.5C1219.1 112.021 1214.38 93.776 1204.97 77.7111L1204.97 77.7014C1195.55 61.4119 1182.71 48.7715 1166.43 39.7492L1166.42 39.7443C1150.34 30.7228 1132.48 26.2004 1112.8 26.2004C1093.32 26.2004 1075.46 30.7209 1059.17 39.7492C1042.89 48.7725 1029.95 61.415 1020.32 77.7102L1020.33 77.7111C1010.92 93.776 1006.2 112.021 1006.2 132.5C1006.2 152.976 1010.92 171.322 1020.33 187.59C1029.94 203.68 1042.88 216.326 1059.17 225.551C1075.46 234.579 1093.32 239.101 1112.8 239.101V241.101L1110.95 241.087C1091.86 240.809 1074.28 236.213 1058.2 227.3C1042.12 218.194 1029.23 205.803 1019.53 190.128L1018.6 188.601C1009 172.001 1004.2 153.3 1004.2 132.5C1004.2 111.7 1009 93.1003 1018.6 76.7004C1028.4 60.1005 1041.6 47.2002 1058.2 38.0002C1074.8 28.8002 1093 24.2004 1112.8 24.2004L1114.67 24.2141C1133.93 24.4925 1151.51 29.0877 1167.4 38.0002C1184 47.2002 1197.1 60.1004 1206.7 76.7004C1216.3 93.1003 1221.1 111.7 1221.1 132.5L1221.08 134.445C1220.79 154.467 1216 172.52 1206.7 188.601L1205.79 190.128C1196.28 205.803 1183.48 218.194 1167.4 227.3C1150.8 236.5 1132.6 241.101 1112.8 241.101V239.101C1132.28 239.101 1150.14 234.579 1166.43 225.551C1182.71 216.327 1195.55 203.684 1204.97 187.599C1214.38 171.329 1219.1 152.979 1219.1 132.5ZM56.8709 72.3H141.471V29.5002H2.07109V237H56.8709V154.2H119.271V113.5H56.8709V72.3ZM574.109 3.5002V27.5002L496.409 130.101L578.01 215V239H506.909L440.609 146.3V239H381.809V27.5002H440.609V118.7L532.501 3.5002H574.109ZM982.659 95.3C982.659 82.8267 979.74 71.6822 973.935 61.8147L973.931 61.8068L973.927 61.8C968.144 51.7762 959.556 43.9375 948.077 38.2951L948.065 38.2893L948.053 38.2834C936.602 32.461 922.531 29.5002 905.76 29.5002H815.059V237H869.859V159H879.354L921.354 237H982.392L935.165 155.317L937.58 154.586C952.444 150.088 963.541 142.61 971.038 132.23L971.042 132.224C978.778 121.586 982.659 109.304 982.659 95.3ZM438.609 124.415V29.5002H383.809V237H438.609V140.066L507.937 237H576.01V215.805L493.784 130.255L572.109 26.8293V5.5002H533.464L438.609 124.415ZM1161.4 132.5C1161.4 115.963 1157.14 102.913 1148.61 93.3527L1148.2 92.9006C1139.87 83.4068 1128.53 78.5117 1114.2 78.215L1112.8 78.2004C1097.6 78.2004 1085.7 83.1006 1077.1 92.9006L1076.7 93.3527C1068.37 102.913 1064.2 115.963 1064.2 132.5C1064.2 149.1 1068.5 162.301 1077.1 172.101C1085.43 181.4 1096.86 186.196 1111.38 186.487L1112.8 186.5C1127.8 186.5 1139.6 181.6 1148.2 171.8C1157 162 1161.4 148.9 1161.4 132.5ZM924.96 98.6008C924.96 91.8008 922.859 86.5004 918.659 82.7004C914.784 78.8256 909.126 76.8274 901.685 76.7063L900.96 76.7004V74.7004C909.067 74.7005 915.546 76.7787 920.044 81.257C924.717 85.5086 926.96 91.3811 926.96 98.6008C926.96 106.173 924.845 112.267 920.337 116.55C915.827 120.834 909.243 122.8 900.96 122.8H869.859V74.7004H900.96V76.7004H871.859V120.8H900.96C908.71 120.8 914.583 119.018 918.579 115.451L918.96 115.101C922.835 111.42 924.833 106.143 924.954 99.2707L924.96 98.6008ZM1163.4 132.5C1163.4 149.258 1158.9 162.869 1149.7 173.118L1149.7 173.119C1140.66 183.419 1128.28 188.5 1112.8 188.5C1097.14 188.5 1084.66 183.535 1075.61 173.435L1075.6 173.419C1066.6 163.163 1062.2 149.449 1062.2 132.5C1062.2 115.361 1066.59 101.632 1075.61 91.5656C1084.65 81.2699 1097.14 76.2004 1112.8 76.2004C1128.28 76.2005 1140.66 81.2814 1149.7 91.5813C1158.91 101.644 1163.4 115.368 1163.4 132.5ZM984.659 95.3C984.659 109.7 980.659 122.401 972.659 133.401C964.859 144.2 953.359 151.9 938.159 156.5L985.859 239H920.159L878.159 161H871.859V239H813.059V27.5002H905.76L907.346 27.509C923.657 27.6906 937.529 30.6877 948.96 36.5002C960.759 42.3001 969.659 50.4003 975.659 60.8C981.659 70.9999 984.659 82.5002 984.659 95.3ZM58.8709 111.5H121.271V156.2H58.8709V239H0.0710926V27.5002H143.471V74.3H58.8709V111.5Z" fill="white"/>
<path d="M1112.8 217.1C1093 217.1 1074.8 212.5 1058.2 203.3C1041.6 193.9 1028.4 181 1018.6 164.6C1009 148 1004.2 129.3 1004.2 108.5C1004.2 87.7002 1009 69.1002 1018.6 52.7002C1028.4 36.1002 1041.6 23.2002 1058.2 14.0002C1074.8 4.8002 1093 0.200195 1112.8 0.200195C1132.8 0.200195 1151 4.8002 1167.4 14.0002C1184 23.2002 1197.1 36.1002 1206.7 52.7002C1216.3 69.1002 1221.1 87.7002 1221.1 108.5C1221.1 129.3 1216.3 148 1206.7 164.6C1197.1 181 1184 193.9 1167.4 203.3C1150.8 212.5 1132.6 217.1 1112.8 217.1ZM1112.8 162.5C1127.8 162.5 1139.6 157.6 1148.2 147.8C1157 138 1161.4 124.9 1161.4 108.5C1161.4 91.7002 1157 78.5002 1148.2 68.9002C1139.6 59.1002 1127.8 54.2002 1112.8 54.2002C1097.6 54.2002 1085.7 59.1002 1077.1 68.9002C1068.5 78.5002 1064.2 91.7002 1064.2 108.5C1064.2 125.1 1068.5 138.3 1077.1 148.1C1085.7 157.7 1097.6 162.5 1112.8 162.5Z" fill="white"/>
<path d="M920.159 215L878.159 137H871.859V215H813.059V3.50018H905.759C922.759 3.50018 937.159 6.50019 948.959 12.5002C960.759 18.3002 969.659 26.4002 975.659 36.8002C981.659 47.0002 984.659 58.5002 984.659 71.3002C984.659 85.7002 980.659 98.4002 972.659 109.4C964.859 120.2 953.359 127.9 938.159 132.5L985.859 215H920.159ZM871.859 96.8002H900.959C908.959 96.8002 914.959 94.9002 918.959 91.1002C922.959 87.3002 924.959 81.8002 924.959 74.6002C924.959 67.8002 922.859 62.5002 918.659 58.7002C914.659 54.7002 908.759 52.7002 900.959 52.7002H871.859V96.8002Z" fill="white"/>
<path d="M657.084 3.50018V126.2C657.084 137.6 659.684 146.4 664.884 152.6C670.284 158.8 678.384 161.9 689.184 161.9C699.984 161.9 708.084 158.8 713.484 152.6C719.084 146.2 721.884 137.4 721.884 126.2V3.50018H780.684V126.2C780.684 145.6 776.584 162.2 768.384 176C760.184 189.6 748.984 199.9 734.784 206.9C720.784 213.7 705.184 217.1 687.984 217.1C670.784 217.1 655.384 213.7 641.784 206.9C628.384 199.9 617.784 189.6 609.984 176C602.384 162.4 598.584 145.8 598.584 126.2V3.50018H657.084Z" fill="white"/>
<path d="M506.909 215L440.609 122.3V215H381.809V3.50018H440.609V94.7002L506.309 3.50018L574.109 3.5002L496.409 106.1L578.01 215H506.909Z" fill="white"/>
<path d="M225.834 3.50018V126.2C225.834 137.6 228.434 146.4 233.634 152.6C239.034 158.8 247.134 161.9 257.934 161.9C268.734 161.9 276.834 158.8 282.234 152.6C287.834 146.2 290.634 137.4 290.634 126.2V3.50018H349.434V126.2C349.434 145.6 345.334 162.2 337.134 176C328.934 189.6 317.734 199.9 303.534 206.9C289.534 213.7 273.934 217.1 256.734 217.1C239.534 217.1 224.134 213.7 210.534 206.9C197.134 199.9 186.534 189.6 178.734 176C171.134 162.4 167.334 145.8 167.334 126.2V3.50018H225.834Z" fill="white"/>
<path d="M143.47 3.50018V50.3002H58.8703V87.5002H121.27V132.2H58.8703V215H0.0703125V3.50018H143.47Z" fill="white"/>
</svg>
