<svg width="800" height="800" viewBox="0 0 800 800" fill="none" xmlns="http://www.w3.org/2000/svg">
<path opacity="0.37" d="M700 458C700 571.771 511.654 702 359.5 702C207.346 702 92 515.271 92 401.5C92 287.729 272.346 252 424.5 252C576.654 252 700 344.229 700 458Z" fill="#AC82FF"/>
<path fill-rule="evenodd" clip-rule="evenodd" d="M699.974 198.615C700.29 218.833 697.777 244.216 695.527 262.69C694.65 269.895 693.457 275.892 692.177 280.818C720.757 333.667 733.334 397.247 733.334 466.667C733.334 548.947 693.757 616.7 632.127 662.903C571.064 708.683 488.687 733.333 400 733.333C311.313 733.333 228.937 708.683 167.874 662.903C106.243 616.7 66.667 548.947 66.667 466.667C66.667 397.247 79.2443 333.667 107.824 280.817C106.544 275.892 105.352 269.895 104.474 262.69C102.225 244.216 99.7113 218.833 100.027 198.615C100.383 175.835 103.361 153.057 106.663 130.46C108.19 120.009 110.615 110.182 121.961 103.972C133.552 97.6286 145.758 99.9936 157.8 103.403C198.416 114.904 236.496 131.036 272.268 150.429C309.984 139.096 352.61 133.333 400 133.333C447.39 133.333 490.017 139.096 527.734 150.429C563.504 131.036 601.584 114.904 642.2 103.403C654.244 99.9936 666.45 97.6286 678.04 103.972C689.387 110.182 691.81 120.009 693.337 130.46C696.64 153.057 699.617 175.835 699.974 198.615ZM666.667 466.667C666.667 410.427 653.74 333.333 583.334 333.333C551.594 333.333 521.58 341.673 491.58 350.013C461.607 358.34 431.65 366.667 400 366.667C368.35 366.667 338.394 358.34 308.421 350.013C278.421 341.673 248.406 333.333 216.667 333.333C146.46 333.333 133.334 410.657 133.334 466.667C133.334 525.453 160.915 574.367 207.863 609.563C255.379 645.187 323.002 666.667 400 666.667C476.997 666.667 544.62 645.183 592.137 609.563C639.087 574.367 666.667 525.453 666.667 466.667ZM333.334 483.333C333.334 529.357 310.948 566.667 283.334 566.667C255.719 566.667 233.334 529.357 233.334 483.333C233.334 437.31 255.719 400 283.334 400C310.948 400 333.334 437.31 333.334 483.333ZM516.667 566.667C544.28 566.667 566.667 529.357 566.667 483.333C566.667 437.31 544.28 400 516.667 400C489.054 400 466.667 437.31 466.667 483.333C466.667 529.357 489.054 566.667 516.667 566.667Z" fill="#AC82FF"/>
</svg>
