<svg width="800" height="800" viewBox="0 0 800 800" fill="none" xmlns="http://www.w3.org/2000/svg">
<path opacity="0.5" d="M66.667 533.333C66.667 439.053 66.667 391.913 95.9563 362.623C125.246 333.333 172.386 333.333 266.667 333.333H533.334C627.614 333.333 674.754 333.333 704.044 362.623C733.334 391.913 733.334 439.053 733.334 533.333C733.334 627.613 733.334 674.753 704.044 704.043C674.754 733.333 627.614 733.333 533.334 733.333H266.667C172.386 733.333 125.246 733.333 95.9563 704.043C66.667 674.753 66.667 627.613 66.667 533.333Z" fill="#AC82FF"/>
<path d="M425 466.667C425 452.86 413.807 441.667 400 441.667C386.193 441.667 375 452.86 375 466.667V600C375 613.807 386.193 625 400 625C413.807 625 425 613.807 425 600V466.667Z" fill="#AC82FF"/>
<path d="M225 266.667C225 170.017 303.35 91.6666 400 91.6666C481.51 91.6666 550.06 147.414 569.487 222.898C572.93 236.269 586.56 244.319 599.93 240.878C613.303 237.436 621.35 223.807 617.91 210.435C592.933 113.397 504.877 41.6666 400 41.6666C275.736 41.6666 175 142.403 175 266.667V335.153C189.55 334.067 206.088 333.63 225 333.453V266.667Z" fill="#AC82FF"/>
</svg>
