<svg width="800" height="800" viewBox="0 0 800 800" fill="none" xmlns="http://www.w3.org/2000/svg">
<path d="M342.56 550.493C342.717 546.833 348.78 545.377 350.58 548.57C359.024 563.56 373.43 585.607 389.774 595.63C406.12 605.653 432.3 608.497 449.49 609.227C453.15 609.383 454.604 615.447 451.41 617.247C436.42 625.69 414.377 640.097 404.354 656.44C394.33 672.787 391.487 698.967 390.757 716.157C390.6 719.817 384.534 721.27 382.737 718.077C374.29 703.087 359.887 681.043 343.54 671.02C327.196 660.997 301.016 658.153 283.827 657.423C280.165 657.267 278.711 651.2 281.905 649.403C296.894 640.957 318.94 626.553 328.963 610.207C338.987 593.863 341.83 567.683 342.56 550.493Z" fill="#AC82FF"/>
<path opacity="0.5" d="M616.396 517.157C616.113 513.503 609.72 511.97 607.81 515.1C602.067 524.517 593.783 535.88 584.58 541.527C575.373 547.173 561.487 549.4 550.49 550.25C546.837 550.533 545.303 556.927 548.433 558.837C557.85 564.58 569.213 572.86 574.86 582.067C580.507 591.273 582.733 605.16 583.583 616.157C583.867 619.81 590.26 621.343 592.17 618.213C597.913 608.797 606.193 597.433 615.4 591.787C624.607 586.14 638.493 583.913 649.49 583.063C653.143 582.78 654.677 576.387 651.547 574.477C642.13 568.733 630.766 560.45 625.12 551.247C619.473 542.04 617.246 528.153 616.396 517.157Z" fill="#AC82FF"/>
<path d="M490.114 133.394L482.037 123.191C450.817 83.7554 435.204 64.0374 417.044 66.9484C398.884 69.859 390.197 93.4707 372.83 140.694L368.337 152.912C363.4 166.331 360.934 173.041 356.2 177.966C351.467 182.89 345.004 185.472 332.081 190.637L320.314 195.339L312.052 198.644C272.068 214.687 251.921 223.777 249.348 241.441C246.605 260.283 265.675 276.402 303.815 308.638L313.682 316.978C324.52 326.139 329.939 330.719 333.046 336.963C336.154 343.207 336.594 350.403 337.48 364.803L338.284 377.91C341.397 428.58 342.954 453.913 359.42 462.647C375.884 471.38 396.354 457.73 437.294 430.43L447.887 423.367C459.52 415.61 465.337 411.73 471.99 410.667C478.644 409.6 485.377 411.467 498.85 415.2L511.114 418.6C558.517 431.74 582.22 438.31 595.14 424.867C608.06 411.423 601.644 386.87 588.804 337.76L585.484 325.054C581.837 311.099 580.01 304.121 581.017 297.219C582.02 290.317 585.744 284.272 593.184 272.182L599.957 261.174C626.144 218.628 639.237 197.354 630.757 180.312C622.274 163.269 597.837 161.743 548.964 158.692L536.32 157.903C522.43 157.036 515.487 156.602 509.454 153.403C503.424 150.203 498.987 144.6 490.114 133.394Z" fill="#AC82FF"/>
<path opacity="0.5" d="M294.5 444.2C223.257 479.007 163.977 534.133 141.614 600.007C116.529 443.087 151.325 341.753 207.102 278.776C211.909 288.6 218.155 296.733 223.765 303.09C235.428 316.304 252.172 330.449 269.174 344.813L281.408 355.15C283.728 357.113 285.532 358.64 287.065 359.963C287.221 362.107 287.376 364.61 287.575 367.857L288.569 384.04C289.905 405.87 291.21 427.183 294.5 444.2Z" fill="#AC82FF"/>
</svg>
